<svg width="374" height="430" viewBox="0 0 374 430" fill="none" xmlns="http://www.w3.org/2000/svg">
<mask id="mask0_5_93" style="mask-type:luminance" maskUnits="userSpaceOnUse" x="0" y="0" width="374" height="430">
<path d="M374 0H0V429.702H374V0Z" fill="white"/>
</mask>
<g mask="url(#mask0_5_93)">
<mask id="mask1_5_93" style="mask-type:alpha" maskUnits="userSpaceOnUse" x="7" y="11" width="356" height="356">
<path d="M185.011 366.043C282.794 366.043 362.064 286.773 362.064 188.989C362.064 91.2056 282.794 11.9362 185.011 11.9362C87.2269 11.9362 7.95752 91.2056 7.95752 188.989C7.95752 286.773 87.2269 366.043 185.011 366.043Z" fill="#D9D9D9"/>
</mask>
<g mask="url(#mask1_5_93)">
<path d="M783.808 -350.128H-409.809V843.489H783.808V-350.128Z" fill="white"/>
<path d="M783.808 -350.128H-409.809V843.489H783.808V-350.128Z" fill="white"/>
<path d="M783.808 -350.128H-409.809V843.489H783.808V-350.128Z" fill="#181842"/>
<mask id="mask2_5_93" style="mask-type:luminance" maskUnits="userSpaceOnUse" x="63" y="118" width="248" height="178">
<path d="M281.65 188.44C281.65 201.174 271.341 211.525 258.669 211.525H248.651V197.952H258.669C263.891 197.952 268.128 193.683 268.128 188.451C268.128 183.208 263.891 178.939 258.669 178.939H238.64C233.418 178.939 229.171 183.208 229.171 188.451V295.794H215.659V188.44C215.659 175.717 225.97 165.366 238.64 165.366H258.669C271.341 165.366 281.65 175.717 281.65 188.44ZM135.111 165.366H115.072C102.411 165.366 92.1015 175.717 92.1015 188.451C92.1015 201.174 102.401 211.525 115.072 211.525H125.092V197.952H115.072C109.861 197.952 105.613 193.683 105.613 188.451C105.613 183.208 109.861 178.939 115.072 178.939H135.111C140.333 178.939 144.571 183.208 144.571 188.451V295.794H158.092V188.44C158.092 175.717 147.783 165.366 135.111 165.366ZM147.514 143.317H75.9586V156.901H147.514C159.046 156.901 168.423 166.319 168.423 177.903V295.794H181.944V177.903C181.944 158.828 166.506 143.317 147.514 143.317ZM192.285 177.903V295.794H205.796V177.903C205.796 166.319 215.174 156.901 226.704 156.901H298.269V143.317H226.704C207.723 143.317 192.285 158.828 192.285 177.903ZM63.7944 118.875V132.458H310.434V118.875H63.7944Z" fill="white"/>
</mask>
<g mask="url(#mask2_5_93)">
<path d="M63.7944 118.875V295.794H310.434V118.875H63.7944Z" fill="white"/>
</g>
</g>
</g>
</svg>
