<?xml version="1.0" encoding="UTF-8"?>
<svg id="Layer_1" data-name="Layer 1" xmlns="http://www.w3.org/2000/svg" viewBox="0 0 514.57 479.17">
  <defs>
    <style>
      .cls-1 {
        fill: #ec008c;
        fill-rule: evenodd;
      }
    </style>
  </defs>
  <path class="cls-1" d="m319.57,304.78c37.01-26.77,57.92-45.88,90.22-75.02-31.47,56.45-81.16,94.04-157.16,107.1,34.47-26.77,76.81-67.04,98-101.62.4,23.31-42.6,65.84-62.58,82.28,33.35-24.62,72.49-68.19,96.27-99.39-7.42,25.25-41.27,69.09-64.75,86.65h0Zm53.06-57.6c13.5-1.62,17.22-2.89,25.28-11.32-6.58,4.76-17.4,7.81-25.28,11.32h0Zm13.82-11.91c12.64,1.71,19.01-7.83,26.18-13.76-4.91,1.65-14.07,9.91-26.18,13.76Z"/>
  <path class="cls-1" d="m348.09,304.78c-37.01-26.77-57.92-45.88-90.22-75.02,31.47,56.45,81.16,94.04,157.15,107.1-34.46-26.77-76.81-67.04-98-101.62-.4,23.31,42.59,65.84,62.58,82.28-33.35-24.62-72.49-68.19-96.27-99.39,7.42,25.25,41.27,69.09,64.75,86.65h0Zm-53.06-57.6c-13.5-1.62-17.22-2.89-25.29-11.32,6.58,4.76,17.4,7.81,25.29,11.32h0Zm-13.82-11.91c-12.64,1.71-19.01-7.83-26.18-13.76,4.91,1.65,14.07,9.91,26.18,13.76Z"/>
  <path class="cls-1" d="m345.33,365.92c2.47-68.04.55-127.03-1.97-194.46,26.23,103.69,26.26,207.04-17.24,307.71.93-73.33-3.57-165.79-19.78-237.71,21.87,31.93,27.62,135.71,27.87,174.68,2.13-72.39-7.6-160.92-19.06-232.94,17.72,43.11,31.32,137.12,30.18,182.73h0Zm-12.97-132.09c8.53-16.55,9.42-24.36,7.96-41.72-.5,13.68-5.34,28.12-7.96,41.72h0Zm-.67-30.34c10.82-11.57,6.56-32.08,6.45-45.89-3.25,11.89-1.62,29.21-6.45,45.89Z"/>
  <path class="cls-1" d="m372.78,270.88c-58.7-2.09-101.7-.53-159.32,1.59,86.67-21.59,170.91-20.64,252.11,13.91-58.46-.73-138.55,3.48-194.76,15.96,25.18-16.98,109.69-22.27,143.11-22.48-56.63-1.64-135,6.63-190.85,15.37,34.33-13.89,111.37-25.29,149.71-24.34h0Zm-108.22,10.46c-13.32-6.76-19.09-7.68-34.18-6.42,11,.4,23.32,4.36,34.18,6.42h0Zm-24.86.54c-9.28-8.55-25.25-5.3-37.6-5.2,7.42,2,23.22,1.11,37.6,5.2Z"/>
  <path class="cls-1" d="m326.5,283.94c.27.35.55.64.9.95.83.7,1.6,1.16,2.76,1.6,1.24.43,2.27.62,3.67.66,1.41,0,2.46-.16,3.73-.57,1.22-.42,2.03-.87,2.91-1.57,1.74-1.52,2.38-2.95,2.34-4.85-.18-1.85-.94-3.21-2.76-4.62-.87-.62-1.65-1.02-2.8-1.39-.1-.05-.69-.19-.84-.22.32.02.61.06.93.1,1.35.22,2.31.56,3.4,1.13,2.47,1.36,3.59,2.91,4.05,5,.31,2.29-.32,4.07-2.32,5.96-1.09.93-2.11,1.52-3.66,2.09-1.68.57-3.09.79-4.98.8-1.87-.04-3.26-.3-4.9-.9-1.49-.59-2.46-1.2-3.46-2.14-1.78-1.88-2.26-3.61-1.71-5.8.65-1.89,1.88-3.31,4.44-4.3,1.02-.38,1.91-.58,3.09-.58,1,.02,1.74.16,2.55.56-.72-.01-1.26.07-1.9.29-.68.24-1.13.51-1.61.91-1.06.98-1.39,1.93-1.3,3.13.17,1.12.68,2.01,1.93,2.78.48.28.9.45,1.51.57.5.08.88.08,1.38-.01.44-.09.72-.22,1.02-.45.2-.1.58-.61.64-.78.25-.67.16-1.36-.4-1.95,1.34.59,1.7,1.48,1.42,2.51-.2.46-.47.79-.96,1.14-.53.35-1.01.53-1.73.65-.79.11-1.4.09-2.18-.06-.85-.19-1.44-.44-2.1-.85-1.54-1.02-2.17-2.12-2.31-3.55-.03-.62.04-1.12.28-1.72-.3.59-.41,1.1-.42,1.72.06,1.48.66,2.61,2.16,3.71.67.46,1.27.74,2.16.99.84.21,1.52.28,2.42.22.85-.08,1.45-.23,2.16-.55.68-.33,1.11-.66,1.55-1.13.87-1.07,1.05-2.04.76-3.24-.33-1-.95-1.85-2.3-2.38-.3-.12-.56-.19-.9-.23.45-.1.84-.08,1.29.01,1.84.37,2.8,1.44,3.36,2.6.57,1.5.41,2.73-.61,4.12-.58.68-1.17,1.14-2.11,1.61-1.04.48-1.94.71-3.2.81-1.32.08-2.32-.03-3.54-.36-1.2-.36-2.02-.78-2.87-1.45-.37-.31-.65-.59-.91-.94h0Zm13.61-4.2c1.16-1.5,1.17-2.67-.62-3.9-.04-.01-.35-.22-.41-.26.05.04.33.27.34.3,1.11,1.22,1.02,2.5.69,3.86h0Zm-1.35-2.61c.24-.27.3-.66.14-.96-.39-.7-1.09-1.15-2.06-1.5-1.5-.48-1.64-.31-3.02-.38.89.26,1.31.05,2.79.67.86.4,1.4.81,1.86,1.44.15.25.24.46.28.73Z"/>
  <path class="cls-1" d="m357.44,111.28c-73.13-2.59-146.78-12.52-219.43-10.33-22.89,1.26-39.71,4.86-59.98,13.54-19.68,9.13-32.31,18.52-45.69,33.28-13.8,16.3-20.89,30.45-26.67,49.6-3.32,12.23-4.86,22.96-5.47,35.47-.56-12.68.06-23.52,2.41-36.07,4.61-20,11.07-34.82,24.41-52.13,13.4-16.02,26.4-26.3,46.85-36.4,21.35-9.75,39.25-13.96,63.65-15.65,89.58-3.52,169.47,10.73,257.51,11.82,17.27-.29,32.37-1.19,49.25-4.37,14.35-3.18,24.8-6.77,36.29-14.54,12.46-9.06,18.31-17.93,23.15-30.8,7.18-18.71,7.56-35.3,5.98-54.7,4.5,19.54,6.64,36.12,3.12,55.93-3.4,15.17-8.67,25.85-21.07,37.7-12.26,10.73-24.02,16.31-40.77,21.56-18.44,5.35-34.65,7.6-54.06,9.19-87.88,5.18-171.28-7.22-257.57-.82-17.96,1.89-31.2,5.37-46.36,13.38-.64.2-4.2,2.43-4.98,2.92,1.44-1.3,2.89-2.46,4.5-3.64,14.03-9.78,28.47-13.99,46.61-16.5,85.24-8.83,170.14,3.81,257.23-1.4,18.64-1.51,34.47-3.61,52.19-8.66,6.32-1.89,11.76-3.86,17.63-6.53-5.92,2.57-11.41,4.46-17.74,6.28-17.76,4.8-33.55,6.77-52.15,8.14-86.93,4.63-169.78-7.73-257.48-3.29-20.01,1.62-34.66,5.13-52.11,13.21-16.64,8.33-27.22,16.74-38.19,29.79-11.41,14.71-17.05,27.37-21.19,44.34-.88,4.18-1.53,8.23-2.02,12.45-.18-4.33.06-8.42.55-12.73,2.83-17.52,8.12-30.78,18.98-46.22,10.88-14.02,21.66-23.09,38.8-32.25,18.18-9,33.65-13.04,54.81-15.11,72.91-5.3,146.11,1.19,219.03,3.53h0Zm-294.17,22.15c-10.65,4.91-18.19,9.7-26.51,16.95-15.86,14.53-21.98,27.07-27.53,45.66,6.43-18.03,14.51-30.17,29.52-44.49,7.78-7.18,14.96-12.49,24.52-18.12h0Zm-38.86,43.7c-6.81,5.46-10.83,14-13.74,21.23-8.39,23.03-7.67,38.51-5.59,61.77.66-25.13-1.21-35.4,8.05-61.29,3.04-7.89,6.3-14.48,11.29-21.71Z"/>
  <path class="cls-1" d="m345.33,365.92c2.47-68.04.55-127.03-1.97-194.46,26.23,103.69,26.26,207.04-17.24,307.71.93-73.33-3.57-165.79-19.78-237.71,21.87,31.93,27.62,135.71,27.87,174.68,2.13-72.39-7.6-160.92-19.06-232.94,17.72,43.11,31.32,137.12,30.18,182.73h0Zm-12.97-132.09c8.53-16.55,9.42-24.36,7.96-41.72-.5,13.68-5.34,28.12-7.96,41.72h0Zm-.67-30.34c10.82-11.57,6.56-32.08,6.45-45.89-3.25,11.89-1.62,29.21-6.45,45.89Z"/>
</svg>