<svg width="374" height="430" viewBox="0 0 374 430" fill="none" xmlns="http://www.w3.org/2000/svg">
<mask id="mask0_5_10" style="mask-type:luminance" maskUnits="userSpaceOnUse" x="0" y="0" width="374" height="430">
<path d="M374 0H0V429.702H374V0Z" fill="white"/>
</mask>
<g mask="url(#mask0_5_10)">
<path d="M123.798 381.957H133.526C136.908 381.957 139.375 382.753 140.926 384.345C142.478 385.896 143.254 388.304 143.254 391.566V394.132C143.254 398.469 141.821 401.214 138.957 402.368V402.488C140.548 402.965 141.662 403.94 142.299 405.412C142.975 406.884 143.313 408.854 143.313 411.32V418.661C143.313 419.855 143.353 420.83 143.433 421.586C143.512 422.302 143.711 423.018 144.03 423.734H137.345C137.107 423.058 136.948 422.421 136.868 421.824C136.788 421.227 136.749 420.153 136.749 418.602V410.962C136.749 409.053 136.43 407.72 135.794 406.964C135.197 406.208 134.143 405.83 132.631 405.83H130.363V423.734H123.798V381.957ZM132.75 399.862C134.063 399.862 135.038 399.524 135.674 398.847C136.351 398.171 136.689 397.037 136.689 395.445V392.223C136.689 390.711 136.41 389.617 135.853 388.94C135.336 388.264 134.501 387.926 133.347 387.926H130.363V399.862H132.75ZM150.852 381.957H168.757V387.926H157.417V398.967H166.429V404.935H157.417V417.766H168.757V423.734H150.852V381.957ZM185.882 424.43C182.169 424.43 179.36 423.386 177.457 421.297C175.554 419.163 174.602 416.121 174.602 412.176V409.391H181.843V412.733C181.843 415.89 183.166 417.468 185.812 417.468C187.112 417.468 188.087 417.096 188.737 416.354C189.433 415.564 189.781 414.31 189.781 412.594C189.781 410.551 189.317 408.764 188.388 407.232C187.46 405.655 185.743 403.775 183.236 401.592C180.08 398.807 177.875 396.301 176.621 394.073C175.368 391.799 174.741 389.245 174.741 386.414C174.741 382.56 175.716 379.59 177.666 377.501C179.615 375.367 182.447 374.298 186.16 374.298C189.828 374.298 192.589 375.367 194.446 377.501C196.349 379.59 197.301 382.608 197.301 386.553V388.572H190.06V386.066C190.06 384.394 189.735 383.187 189.085 382.445C188.435 381.655 187.483 381.261 186.23 381.261C183.677 381.261 182.4 382.817 182.4 385.926C182.4 387.691 182.865 389.338 183.793 390.87C184.768 392.402 186.509 394.258 189.015 396.44C192.218 399.225 194.423 401.756 195.63 404.029C196.837 406.303 197.44 408.973 197.44 412.037C197.44 416.029 196.442 419.093 194.446 421.228C192.496 423.362 189.642 424.43 185.882 424.43ZM204.906 381.957H211.471V423.734H204.906V381.957ZM219.371 381.957H229.397C232.66 381.957 235.107 382.833 236.738 384.583C238.369 386.334 239.185 388.9 239.185 392.282V413.409C239.185 416.791 238.369 419.357 236.738 421.108C235.107 422.859 232.66 423.734 229.397 423.734H219.371V381.957ZM229.278 417.766C230.352 417.766 231.168 417.448 231.725 416.811C232.322 416.175 232.62 415.14 232.62 413.708V391.984C232.62 390.552 232.322 389.517 231.725 388.88C231.168 388.244 230.352 387.926 229.278 387.926H225.936V417.766H229.278ZM246.599 381.957H264.503V387.926H253.164V398.967H262.176V404.935H253.164V417.766H264.503V423.734H246.599V381.957Z" fill="black"/>
<mask id="mask1_5_10" style="mask-type:alpha" maskUnits="userSpaceOnUse" x="7" y="11" width="356" height="356">
<path d="M185.011 366.043C282.794 366.043 362.064 286.773 362.064 188.989C362.064 91.2056 282.794 11.9362 185.011 11.9362C87.2269 11.9362 7.95752 91.2056 7.95752 188.989C7.95752 286.773 87.2269 366.043 185.011 366.043Z" fill="#D9D9D9"/>
</mask>
<g mask="url(#mask1_5_10)">
<path d="M783.808 -350.128H-409.809V843.489H783.808V-350.128Z" fill="white"/>
<path d="M783.808 -350.128H-409.809V843.489H783.808V-350.128Z" fill="white"/>
<path d="M783.808 -350.128H-409.809V843.489H783.808V-350.128Z" fill="#181842"/>
<mask id="mask2_5_10" style="mask-type:luminance" maskUnits="userSpaceOnUse" x="63" y="118" width="248" height="178">
<path d="M281.65 188.44C281.65 201.174 271.341 211.525 258.669 211.525H248.651V197.952H258.669C263.891 197.952 268.128 193.683 268.128 188.451C268.128 183.208 263.891 178.939 258.669 178.939H238.64C233.418 178.939 229.171 183.208 229.171 188.451V295.794H215.659V188.44C215.659 175.717 225.97 165.366 238.64 165.366H258.669C271.341 165.366 281.65 175.717 281.65 188.44ZM135.111 165.366H115.072C102.411 165.366 92.1015 175.717 92.1015 188.451C92.1015 201.174 102.401 211.525 115.072 211.525H125.092V197.952H115.072C109.861 197.952 105.613 193.683 105.613 188.451C105.613 183.208 109.861 178.939 115.072 178.939H135.111C140.333 178.939 144.571 183.208 144.571 188.451V295.794H158.092V188.44C158.092 175.717 147.783 165.366 135.111 165.366ZM147.514 143.317H75.9586V156.901H147.514C159.046 156.901 168.423 166.319 168.423 177.903V295.794H181.944V177.903C181.944 158.828 166.506 143.317 147.514 143.317ZM192.285 177.903V295.794H205.796V177.903C205.796 166.319 215.174 156.901 226.704 156.901H298.269V143.317H226.704C207.723 143.317 192.285 158.828 192.285 177.903ZM63.7944 118.875V132.458H310.434V118.875H63.7944Z" fill="white"/>
</mask>
<g mask="url(#mask2_5_10)">
<path d="M63.7944 118.875V295.794H310.434V118.875H63.7944Z" fill="white"/>
</g>
</g>
</g>
</svg>
